# xmcd CD database file
#
# Track frame offsets:
#	150
#	113554
#	124899
#	180620
#	216479
#	236558
#	263504
#	286465
#
# Disc length: 4029 seconds
#
# Revision: 0
# Processed by: cddbd v1.5.2PL0 Copyright (c) Steve Scherf et al.
# Submitted via: CDex 1.76
#
DISCID=730fbb08
DTITLE=Laraaji - Flow Goes the Universe
DYEAR=2013
DGENRE=New Age
TTITLE0=Being Here
TTITLE1=Immersion
TTITLE2=A Cave in England
TTITLE3=Zither Dance
TTITLE4=In Continuum
TTITLE5=Deep Celestial
TTITLE6=Space Choir
TTITLE7=Mbira Dance
EXTD=YEAR: 2013
EXTT0=
EXTT1=
EXTT2=
EXTT3=
EXTT4=
EXTT5=
EXTT6=
EXTT7=
PLAYORDER=
